<?xml version="1.0" standalone="no"?>
<!DOCTYPE svg PUBLIC "-//W3C//DTD SVG 20010904//EN"
 "http://www.w3.org/TR/2001/REC-SVG-20010904/DTD/svg10.dtd">
<svg version="1.0" xmlns="http://www.w3.org/2000/svg"
 width="511.000000pt" height="381.000000pt" viewBox="0 0 511.000000 381.000000"
 preserveAspectRatio="xMidYMid meet">
<metadata>
Created by potrace 1.16, written by Peter Selinger 2001-2019
</metadata>
<g transform="translate(0.000000,381.000000) scale(0.100000,-0.100000)"
fill="#000000" stroke="none">
<path d="M727 2224 c-138 -130 -253 -245 -255 -255 -4 -26 15 -49 40 -49 32 0
77 -29 93 -60 12 -23 15 -70 15 -233 0 -144 3 -206 12 -215 8 -8 55 -12 145
-12 121 0 133 2 143 19 5 11 10 67 10 125 0 119 13 146 68 146 51 0 60 -22 64
-153 2 -91 6 -120 18 -127 23 -15 263 -13 278 2 9 9 12 71 12 219 0 198 1 207
23 240 16 24 37 38 70 49 51 16 69 34 60 58 -10 26 -507 482 -525 482 -10 0
-132 -106 -271 -236z m478 -58 c88 -82 167 -156 175 -163 13 -13 11 -18 -16
-41 -66 -57 -69 -67 -74 -282 l-5 -195 -66 -3 -66 -3 -5 90 c-6 102 -24 142
-78 178 -69 47 -171 18 -209 -60 -16 -33 -21 -62 -21 -126 l0 -82 -67 3 -68 3
-5 195 c-5 214 -9 226 -72 281 l-30 25 74 70 c40 39 129 123 198 187 l124 116
25 -22 c14 -12 98 -89 186 -171z"/>
<path d="M2422 2185 c-107 -33 -163 -118 -170 -256 -6 -114 14 -185 69 -244
53 -58 112 -80 209 -79 123 2 200 46 246 141 24 51 28 70 28 153 0 113 -23
179 -85 234 -66 60 -197 83 -297 51z m222 -93 c52 -36 79 -91 84 -168 10 -148
-72 -244 -206 -244 -61 0 -129 34 -159 78 -69 104 -42 283 50 337 73 43 167
42 231 -3z"/>
<path d="M3042 2181 c-98 -34 -155 -116 -168 -242 -8 -79 14 -176 54 -234 42
-62 124 -98 221 -99 97 -1 157 21 209 78 56 61 75 126 70 240 -3 77 -8 99 -33
145 -16 29 -44 64 -62 78 -69 53 -194 68 -291 34z m216 -81 c136 -76 129 -337
-11 -401 -115 -52 -255 6 -287 119 -13 49 -13 131 1 173 15 43 53 95 82 111
62 33 154 32 215 -2z"/>
<path d="M1730 1905 l0 -285 40 0 40 0 0 120 0 120 94 0 c75 0 98 -4 116 -18
23 -18 39 -77 40 -143 0 -50 32 -89 74 -89 36 0 56 15 56 42 0 12 -8 18 -25
18 -19 0 -26 7 -34 38 -6 20 -11 52 -11 70 0 24 -9 42 -30 64 -17 17 -30 31
-28 32 2 1 16 8 32 16 43 22 69 88 64 158 -4 48 -10 60 -40 88 -46 42 -106 54
-263 54 l-125 0 0 -285z m254 216 c47 -6 64 -13 82 -35 33 -37 32 -95 0 -133
-24 -28 -26 -28 -138 -28 l-113 0 -3 89 c-2 49 -1 95 2 103 6 15 72 16 170 4z"/>
<path d="M3530 1905 l0 -285 40 0 40 0 0 262 c0 156 4 258 9 253 5 -6 43 -122
84 -260 l74 -250 63 0 63 0 76 252 c42 139 80 255 84 259 4 4 7 -110 7 -254
l0 -262 40 0 40 0 0 285 0 285 -73 0 -73 0 -62 -212 c-34 -117 -69 -237 -78
-265 -9 -29 -19 -53 -23 -53 -3 0 -42 119 -86 265 l-79 265 -73 0 -73 0 0
-285z"/>
<path d="M4231 2168 c6 -13 49 -93 95 -179 l84 -157 0 -106 0 -106 39 0 39 0
4 108 4 107 83 150 c46 83 89 162 97 178 l15 27 -45 0 -45 0 -67 -140 c-37
-77 -72 -140 -79 -140 -6 0 -42 63 -78 140 l-66 140 -46 0 c-44 0 -45 -1 -34
-22z"/>
</g>
</svg>
